<svg width="1440" height="395" viewBox="0 0 1440 395" fill="none" xmlns="http://www.w3.org/2000/svg">
<g opacity="0.6">
<path d="M1011.47 720.688L815.12 720.688L815.12 922L629.382 922L629.382 720.342L433.771 720.342L432.593 545.218L629.382 545.218L630.56 345.205L813.777 345.205L813.777 545.218L1011.47 545.218L1011.47 720.688Z" fill="white"/>
<ellipse cx="722.251" cy="393.974" rx="177.778" ry="177.777" fill="white"/>
<path d="M1591.79 249.21L1452.95 388.052L1595.3 530.401L1463.96 661.738L1321.37 519.144L1183.05 657.462L1058.39 534.463L1197.54 395.313L1056.94 253.049L1186.49 123.495L1327.92 264.925L1467.71 125.135L1591.79 249.21Z" fill="white"/>
<ellipse cx="1156.26" cy="222.698" rx="177.778" ry="177.777" transform="rotate(-45 1156.26 222.698)" fill="white"/>
<path d="M257.679 658.54L118.837 519.698L-23.5123 662.048L-154.849 530.712L-12.255 388.118L-150.573 249.8L-27.5745 125.135L111.576 264.286L253.84 123.689L383.394 253.243L241.963 394.673L381.754 534.464L257.679 658.54Z" fill="white"/>
<ellipse cx="284.19" cy="223.009" rx="177.778" ry="177.777" transform="rotate(45 284.19 223.009)" fill="white"/>
</g>
</svg>
