<svg width="1440" height="757" viewBox="0 0 1440 757" fill="none" xmlns="http://www.w3.org/2000/svg">
<g opacity="0.6">
<path d="M1006.6 -94.6873L810.25 -94.6873L810.25 -296L624.512 -296L624.512 -94.3419L428.901 -94.3419L427.723 80.7823L624.511 80.7822L625.69 280.795L808.907 280.795L808.907 80.7822L1006.6 80.7822L1006.6 -94.6873Z" fill="white"/>
<ellipse cx="177.778" cy="177.777" rx="177.778" ry="177.777" transform="matrix(1 -1.74846e-07 -1.74846e-07 -1 539.604 409.804)" fill="white"/>
<path d="M257.678 -31.5945L118.837 107.247L-23.5126 -35.1027L-154.849 96.2337L-12.2552 238.828L-150.573 377.145L-27.5747 501.81L111.576 362.659L253.839 503.256L383.393 373.702L241.963 232.272L381.754 92.4811L257.678 -31.5945Z" fill="white"/>
<ellipse cx="177.778" cy="177.777" rx="177.778" ry="177.777" transform="matrix(0.707107 -0.707107 -0.707107 -0.707107 284.189 655.352)" fill="white"/>
<path d="M1591.79 372.429L1452.95 233.588L1595.3 91.2383L1463.96 -40.0981L1321.37 102.496L1183.05 -35.8223L1058.39 87.1761L1197.54 226.327L1056.94 368.59L1186.49 498.144L1327.92 356.714L1467.71 496.505L1591.79 372.429Z" fill="white"/>
<ellipse cx="177.778" cy="177.777" rx="177.778" ry="177.777" transform="matrix(0.707107 0.707107 0.707107 -0.707107 904.844 398.94)" fill="white"/>
</g>
</svg>
