<svg width="1440" height="1250" viewBox="0 0 1440 1250" fill="none" xmlns="http://www.w3.org/2000/svg">
<g opacity="0.6">
<path d="M1006.6 -94.6873L810.251 -94.6873L810.25 -296L624.513 -296L624.513 -94.3419L428.902 -94.3419L427.724 80.7823L624.512 80.7822L625.691 280.795L808.908 280.795L808.908 80.7822L1006.6 80.7822L1006.6 -94.6873Z" fill="white"/>
<ellipse cx="177.778" cy="177.777" rx="177.778" ry="177.777" transform="matrix(1 -1.74846e-07 -1.74846e-07 -1 539.604 409.803)" fill="white"/>
<path d="M1591.79 1297.21L1452.95 1436.05L1595.3 1578.4L1463.96 1709.74L1321.37 1567.14L1183.05 1705.46L1058.39 1582.46L1197.54 1443.31L1056.94 1301.05L1186.49 1171.49L1327.92 1312.93L1467.72 1173.13L1591.79 1297.21Z" fill="white"/>
<ellipse cx="1156.26" cy="1270.7" rx="177.778" ry="177.777" transform="rotate(-45 1156.26 1270.7)" fill="white"/>
<path d="M257.679 -31.594L118.837 107.247L-23.5123 -35.1022L-154.849 96.2342L-12.255 238.828L-150.573 377.146L-27.5745 501.81L111.576 362.66L253.84 503.257L383.394 373.703L241.963 232.272L381.754 92.4816L257.679 -31.594Z" fill="white"/>
<ellipse cx="177.778" cy="177.777" rx="177.778" ry="177.777" transform="matrix(0.707107 -0.707107 -0.707107 -0.707107 284.19 655.352)" fill="white"/>
<path d="M257.679 1706.54L118.837 1567.7L-23.5123 1710.05L-154.849 1578.71L-12.255 1436.12L-150.573 1297.8L-27.5745 1173.14L111.576 1312.29L253.84 1171.69L383.394 1301.24L241.963 1442.67L381.754 1582.46L257.679 1706.54Z" fill="white"/>
<ellipse cx="284.19" cy="1271.01" rx="177.778" ry="177.777" transform="rotate(45 284.19 1271.01)" fill="white"/>
<path d="M1591.79 372.429L1452.95 233.587L1595.3 91.2378L1463.96 -40.0986L1321.37 102.495L1183.05 -35.8228L1058.39 87.1756L1197.54 226.326L1056.94 368.59L1186.49 498.144L1327.92 356.714L1467.72 496.504L1591.79 372.429Z" fill="white"/>
<ellipse cx="177.778" cy="177.777" rx="177.778" ry="177.777" transform="matrix(0.707107 0.707107 0.707107 -0.707107 904.844 398.94)" fill="white"/>
</g>
</svg>
